<svg width="121" height="85" viewBox="0 0 121 85" fill="none" xmlns="http://www.w3.org/2000/svg">
<path d="M120.177 15.0405C120.156 14.9955 120.137 14.9537 120.125 14.9263C119.911 14.4036 119.011 12.5476 118.294 11.0793C117.862 10.1882 116.609 8.07975 114.16 7.31258C112.651 6.83813 110.863 6.90568 109.122 7.50236C108.913 7.57473 108.424 7.742 94.6056 13.6493C94.0573 13.8729 92.9496 14.2814 92.2176 14.4599C91.2361 14.6996 89.3852 14.7736 88.4965 14.8089C88.2424 14.8186 88.0234 14.8282 87.8619 14.8363C87.2178 14.8668 79.5775 15.0582 74.9118 15.1724L74.8175 15.1756C74.485 15.1901 73.8553 15.2046 73.5516 15.1885C72.9362 15.1579 72.0555 15.0132 71.6367 14.944C71.1492 14.862 65.8042 13.8665 62.5498 13.2585L56.8787 12.1986V12.5911C56.1419 12.5428 55.4066 12.5155 54.7289 12.5235C50.9151 12.5718 42.7058 13.7796 39.3492 14.2991C37.8979 14.5243 32.7894 16.0522 32.7446 16.0666C31.6162 16.4237 30.646 16.9576 29.8563 17.6573C28.7407 18.648 28.0502 20.0327 27.7033 21.9901C26.8402 22.4452 25.09 23.3603 23.9535 23.9522L23.8 24.0358C23.41 24.2578 22.4222 24.8513 21.6694 25.5782C20.4994 26.7056 19.7881 28.285 19.4668 29.1294C19.275 29.636 12.7248 47.8823 11.3758 51.641C11.1824 52.1588 10.7923 53.3763 10.7923 54.7659C10.7923 56.0059 11.0545 56.8439 11.2111 57.344L11.2511 57.4759C11.3022 57.6432 11.4125 58.0002 11.5292 58.3798C8.80715 60.8469 2.74445 66.349 2.42477 66.6385L2.37522 66.6851C0.842365 68.1165 -0.626556 70.9021 0.276535 74.0416C1.14446 77.0588 3.84095 79 7.01375 79C7.32704 79 7.64512 78.9807 7.96639 78.9421C8.51304 78.8762 17.8157 77.3145 25.5343 76.015C26.2776 75.8976 27.6058 75.7206 28.1477 75.7046C29.1307 75.674 30.1968 75.7174 30.9305 75.8155C31.637 75.9104 36.9564 76.7049 39.0087 77.0121C39.8863 77.1569 42.53 77.4271 44.8205 75.9796C46.7258 74.7766 47.8702 72.6327 48.2746 71.7626L48.3417 71.6211C48.9395 70.3553 50.7585 66.5066 50.9327 62.674C51.0366 60.4031 50.4596 58.227 50.1831 57.18C50.1527 57.0674 50.1271 56.9709 50.1096 56.9001C49.9625 56.2568 48.5591 50.7918 48.1244 49.103C48.2474 48.8956 48.4568 48.5482 48.7142 48.1236C49.1042 48.2394 49.5789 48.3503 50.1128 48.4147C50.9615 48.516 51.9109 48.5047 52.5439 48.4774C52.9083 48.4629 69.0681 47.7295 74.9086 47.4642C75.5 48.1059 76.3248 48.7026 77.4804 49.0194C79.5967 49.5984 81.4252 48.6784 82.1205 48.3262C82.7071 48.0496 87.9594 45.6484 91.1898 44.1735L91.2106 44.1639C91.4823 44.0385 93.9646 42.8515 97.5162 39.8826C98.5935 38.9803 101.314 36.214 101.981 35.4999C102.681 34.7504 107.166 29.9448 107.843 29.2194C108.331 28.7514 108.965 28.2014 109.221 28.0229C109.984 27.5983 113.772 25.7744 116.946 24.2803C117.785 23.8991 120.106 22.6237 120.798 19.9523C121.387 17.6975 120.536 15.8366 120.173 15.0421L120.177 15.0405ZM117.09 18.9713C116.806 20.0697 115.624 20.6487 115.351 20.7694C112.405 22.1557 107.813 24.3527 107.209 24.7355C106.571 25.1391 105.5 26.1315 105.12 26.5014C104.805 26.8391 99.9218 32.071 99.1881 32.8558C98.4545 33.6423 95.9098 36.2076 95.0659 36.9152C91.8387 39.6124 89.7001 40.616 89.6106 40.6578C86.0702 42.2741 80.7108 44.7252 80.4406 44.8587L80.4071 44.8764C79.7773 45.1948 79.1092 45.4666 78.489 45.2978C77.6514 45.0678 77.3717 44.3842 77.124 43.7795L77.068 43.6412C77.0105 43.5013 76.6588 43.5206 76.6556 43.5206L76.5997 43.5302L76.5885 43.527C75.6183 43.5704 52.8108 44.6062 52.3937 44.6223C52.0628 44.6367 51.2172 44.6609 50.5667 44.5837C49.9625 44.5113 49.5006 44.3263 49.3615 44.2668C48.9987 44.1285 47.9166 43.712 47.6592 43.5897C47.4019 43.4691 47.2612 43.4562 47.1398 43.482C47.0678 43.5238 46.9304 43.6701 46.8488 43.7908C46.2942 44.7027 44.8525 47.0798 44.6942 47.3596L44.6798 47.3854C44.5424 47.6266 44.1779 48.2699 44.1476 48.6045C44.1268 48.8361 44.2275 49.3925 44.3346 49.7737L44.3394 49.793C44.4161 50.0921 46.2207 57.1108 46.3725 57.7735C46.3965 57.8764 46.4333 58.0131 46.4764 58.1788C46.721 59.1035 47.1765 60.826 47.0998 62.5019C46.9607 65.5561 45.3911 68.8757 44.8764 69.9677L44.7997 70.1318C44.4017 70.9874 43.6345 72.1759 42.7825 72.7147C41.5454 73.4963 39.8607 73.2471 39.6081 73.2036C39.2917 73.157 32.3099 72.1116 31.4404 71.9942C30.5005 71.8671 29.225 71.814 28.0294 71.851C26.9968 71.8816 24.9365 72.2065 24.9157 72.2113C23.2007 72.5008 8.06709 75.0484 7.50925 75.1143C7.33503 75.1352 7.1656 75.1449 7.00256 75.1449C5.33704 75.1449 4.2853 74.0979 3.96242 72.9736C3.51487 71.4184 4.39399 70.0706 4.98539 69.5206C5.09249 69.4225 14.7883 60.6266 15.3653 60.1055C15.6882 59.8144 15.7633 59.57 15.7857 59.3834C15.7761 59.2451 15.6866 58.8462 15.5907 58.5245C15.5907 58.5245 15.0553 56.7924 14.921 56.3533C14.9034 56.2954 14.8858 56.2423 14.8698 56.1893C14.7516 55.8097 14.6285 55.4189 14.6285 54.7723C14.6285 53.9376 14.921 53.1238 14.9737 52.9871C15.3366 51.9771 22.8634 31.0063 23.0504 30.5109C23.1799 30.1716 23.6498 29.0184 24.3211 28.3719C24.7958 27.9135 25.595 27.4535 25.6861 27.4037L25.7165 27.3876C25.7533 27.3683 29.4663 25.4335 30.005 25.1375C30.6811 24.7676 30.9752 24.4556 31.1015 24.2594C31.223 24.0712 31.3317 23.6515 31.4228 23.0162C31.6849 21.1859 32.2172 20.7147 32.3914 20.5603C32.7734 20.2225 33.2785 19.9523 33.8939 19.7561C34.3942 19.5969 38.9512 18.2732 39.931 18.1205C42.4852 17.7264 51.1022 16.4366 54.7737 16.3899C56.6949 16.3642 59.2619 16.6842 60.7117 16.8901V16.8483L61.8465 17.0606C61.9313 17.0767 70.3596 18.6512 71.0117 18.759C71.7997 18.8892 72.6309 19.0147 73.3614 19.0501C73.9783 19.0822 74.9741 19.0388 74.9837 19.0372H75.0029C79.2546 18.9327 87.4544 18.7284 88.0554 18.6962C88.212 18.6882 88.4134 18.6801 88.6468 18.6705C89.8136 18.6239 91.7684 18.5467 93.1222 18.2153C94.4233 17.8969 96.0665 17.2214 96.0841 17.215C98.3634 16.2403 109.822 11.3446 110.361 11.1597C111.322 10.83 112.29 10.7721 113.017 11.0004C114.111 11.343 114.737 12.5444 114.851 12.7808C115.004 13.0945 116.374 15.901 116.582 16.406C116.614 16.4832 116.652 16.5668 116.692 16.6553C116.946 17.2134 117.331 18.0561 117.092 18.9745L117.09 18.9713Z" fill="#15151E"/>
<path d="M114.808 17.141C114.669 16.8032 113.726 14.8524 113.125 13.6252C112.966 13.3052 112.643 12.9031 112.444 12.8404C112.17 12.7551 111.612 12.7664 110.978 12.9835C110.502 13.1556 102.251 16.6714 96.8209 18.9922C96.7378 19.0275 95.0163 19.7336 93.573 20.0858C92.0338 20.4622 89.959 20.5442 88.7203 20.594C88.4965 20.6037 88.3047 20.6101 88.1545 20.6182C87.3808 20.6584 75.6822 20.9447 75.0572 20.9591C74.9406 20.964 73.9432 21.0058 73.2638 20.9704C72.4391 20.9302 71.544 20.7951 70.6984 20.6552C70.0671 20.5506 62.7832 19.19 61.6356 18.9761L61.5141 18.9568C61.4725 18.9503 57.3934 18.2813 54.796 18.3118C51.2492 18.3569 42.7442 19.6307 40.2219 20.0199C39.4723 20.1357 35.1582 21.3693 34.4693 21.588C34.1304 21.6957 33.8507 21.8357 33.6749 21.9852C33.5918 22.101 33.4272 22.5417 33.3217 23.2831C33.2242 23.9651 33.0739 24.7403 32.7079 25.3064C32.3419 25.8693 31.7568 26.3663 30.9225 26.823C30.3806 27.1206 26.9217 28.9235 26.6164 29.0827C26.3543 29.2339 25.8732 29.5411 25.6494 29.7566C25.4096 29.9866 25.0708 30.5897 24.8438 31.1912C24.6983 31.574 19.5036 46.044 16.7767 53.6417L16.7687 53.661C16.708 53.8218 16.5482 54.3381 16.5482 54.7627C16.5482 55.1117 16.6025 55.2838 16.7016 55.599C16.7192 55.6569 16.7384 55.7164 16.7575 55.7808C16.8902 56.2182 17.4257 57.9488 17.4257 57.9488C17.5759 58.449 17.7437 59.1261 17.6974 59.5523C17.6191 60.3098 17.2642 60.9772 16.6457 61.5337C16.0798 62.0451 6.68129 70.5724 6.29128 70.9246C6.22255 70.9922 5.58319 71.6564 5.80537 72.4284C6.05791 73.3098 7.15761 73.2036 7.28228 73.1892C7.74102 73.1297 17.8956 71.4264 24.6088 70.2974C24.7063 70.2813 26.8178 69.9484 27.9718 69.9146C29.2665 69.8744 30.6587 69.9339 31.6961 70.0739C32.5944 70.1945 39.6033 71.2447 39.9006 71.2881L39.9262 71.293C40.2283 71.3444 41.2193 71.4152 41.7628 71.0726C42.1368 70.8362 42.7186 70.0449 43.0639 69.3067L43.1454 69.133C44.4177 66.4391 45.105 64.1762 45.1849 62.4086C45.2473 61.0287 44.8413 59.4944 44.6239 58.6693C44.5727 58.4795 44.5312 58.3203 44.504 58.2013C44.3873 57.6914 43.1342 52.8022 42.4852 50.2787C42.4261 50.0664 42.1752 49.1095 42.2391 48.4227C42.3078 47.67 42.7698 46.8578 43.0175 46.422L43.0319 46.3979C43.2381 46.036 45.1434 42.8998 45.2249 42.7663L45.2345 42.7502C45.3751 42.5299 45.8914 41.7949 46.673 41.6067C47.4466 41.4201 48.0716 41.6501 48.4744 41.8383C48.6135 41.9042 49.3935 42.2098 50.0696 42.4687L50.1303 42.4945C50.1303 42.4945 50.4165 42.6199 50.7969 42.665C51.3227 42.7277 52.0948 42.7019 52.3185 42.6923C52.7261 42.6762 75.4441 41.6453 76.4702 41.5986C77.1447 41.5263 78.3531 41.7193 78.8406 42.8982L78.8998 43.0429C78.9445 43.1539 78.9973 43.2809 79.0404 43.3758C79.1443 43.3388 79.3026 43.2729 79.5455 43.1491L79.5855 43.1281C79.894 42.9737 87.9019 39.3148 88.8146 38.8983C88.829 38.8918 90.8318 37.9429 93.8415 35.4275C94.5784 34.8116 97.0032 32.375 97.7928 31.5306C98.5504 30.72 103.739 25.1601 103.739 25.1601L103.771 25.1279C103.83 25.07 105.24 23.7013 106.189 23.0998C107.089 22.5305 113.791 19.3717 114.552 19.0131L114.579 19.0002C114.865 18.8715 115.199 18.6078 115.236 18.4791C115.302 18.2266 115.099 17.7795 114.948 17.453C114.897 17.3404 114.849 17.2343 114.809 17.1362L114.808 17.141ZM20.3683 54.9943C20.3651 55.0056 20.3603 55.0152 20.3587 55.0232L20.3683 54.9943ZM40.5208 67.4796C40.5336 67.4813 40.5448 67.4829 40.5528 67.4845L40.5192 67.4796H40.5208ZM101.1 22.3568L100.94 22.5208C100.94 22.5208 95.7532 28.0791 94.994 28.8897C94.1596 29.784 91.8979 32.0324 91.3864 32.4602C88.9744 34.477 87.3521 35.3198 87.1778 35.4066C83.5895 37.0455 81.3981 38.0491 80.0522 38.6667C78.847 37.9236 77.4404 37.6454 76.2113 37.7451C68.0131 38.1166 52.5967 38.8163 52.1523 38.8356C51.831 38.8484 51.5449 38.8468 51.3755 38.8404C50.8624 38.6442 50.2358 38.3981 50.0424 38.3177C48.631 37.6679 47.1957 37.5119 45.7731 37.8545C43.6553 38.3659 42.4261 39.9968 41.9961 40.6739L41.9466 40.7543C41.3408 41.7498 39.9102 44.1076 39.6976 44.4823L39.6849 44.5065C39.1286 45.4843 38.5436 46.6729 38.4157 48.0721C38.3038 49.296 38.5868 50.5859 38.777 51.2807C39.6673 54.7402 40.6615 58.6355 40.7638 59.0698C40.7989 59.2193 40.8501 59.4204 40.914 59.6632C41.0787 60.2873 41.3855 61.4469 41.3504 62.2333C41.312 63.0825 40.9987 64.6587 39.7312 67.3638C37.7956 67.0743 32.9716 66.3538 32.2044 66.2509C30.4254 66.0112 28.568 66.037 27.8552 66.0579C26.5141 66.0981 24.4234 66.4214 24.0174 66.4857L23.9727 66.4921C21.3641 66.9312 18.2009 67.4636 15.2998 67.9493C17.2642 66.1673 18.9697 64.6201 19.1983 64.4142C20.5297 63.216 21.3289 61.6752 21.508 59.9688C21.5463 59.615 21.647 58.6741 21.0956 56.8422L21.0844 56.8053C21.0844 56.8053 20.6193 55.3015 20.4514 54.7547C23.5523 46.1148 28.1669 33.2676 28.4274 32.5599C28.4402 32.5277 28.453 32.4972 28.4657 32.465C29.2873 32.0356 32.2124 30.5109 32.7526 30.215C34.1576 29.4446 35.1918 28.5311 35.9174 27.4165C36.4513 26.5915 36.747 25.7004 36.9276 24.8882C38.3038 24.4942 40.2843 23.9442 40.8453 23.8316C45.9074 23.0515 52.229 22.2072 54.8408 22.175C56.7109 22.1525 59.8422 22.5964 60.8907 22.7685L60.985 22.7846C62.772 23.1191 69.4165 24.3591 70.0767 24.4685C71.0325 24.6261 72.0571 24.7789 73.0672 24.8287C73.8664 24.8689 74.8814 24.8336 75.1835 24.8207C77.3493 24.7676 87.5599 24.5183 88.3559 24.4749C88.4933 24.4669 88.6675 24.4604 88.8689 24.4524C90.2515 24.3977 92.5644 24.306 94.4761 23.838C96.1688 23.4247 98.0517 22.6559 98.2611 22.5691L98.317 22.5449C99.7987 21.9113 101.56 21.1602 103.328 20.4059C102.358 21.1473 101.416 22.0447 101.097 22.3568H101.1Z" fill="#15151E"/>
</svg>
